<svg xmlns="http://www.w3.org/2000/svg" xmlns:xlink="http://www.w3.org/1999/xlink" version="1.1" viewBox="0 0 100 100">
	<style type="text/css">
		.st0 {
			fill: none;
			stroke: #ffffff;
			stroke-width: 3;
			stroke-linecap: round;
			stroke-linejoin: round;
			stroke-miterlimit: 10;
		}

		.st1 {
			fill: none;
			stroke: #ffffff;
			stroke-width: 3;
			stroke-miterlimit: 10;
		}
	</style>
	<path
		d="M96.3,88c0-0.1,0.1-0.2,0.1-0.3c0,0,0-0.1,0-0.1c0-0.1,0-0.2,0-0.3c0,0,0,0,0-0.1c0-0.1,0-0.2,0-0.3  c-5.3-21.3-16.8-43-35-66.1c0,0,0-0.1-0.1-0.1c0,0,0,0-0.1-0.1c-3.2-4.1-6.6-8.2-10.3-12.4c0,0,0,0,0,0c0,0-0.1-0.1-0.1-0.1  c0,0,0,0-0.1,0c-0.1,0-0.1-0.1-0.2-0.1c0,0,0,0,0,0c0,0,0,0-0.1,0c-0.1,0-0.1-0.1-0.2-0.1c0,0-0.1,0-0.1,0c0,0-0.1,0-0.1,0  c0,0,0,0,0,0c0,0-0.1,0-0.1,0c0,0-0.1,0-0.1,0c0,0,0,0,0,0c0,0,0,0,0,0c0,0,0,0,0,0c0,0-0.1,0-0.1,0c0,0-0.1,0-0.1,0c0,0,0,0-0.1,0  c0,0-0.1,0-0.1,0c0,0-0.1,0-0.1,0c-0.1,0-0.1,0.1-0.2,0.1c0,0,0,0-0.1,0c0,0,0,0,0,0c0,0,0,0-0.1,0c0,0,0,0-0.1,0.1c0,0,0,0,0,0  c0,0,0,0-0.1,0c0,0,0,0-0.1,0.1c0,0,0,0,0,0c-9.8,11.1-18.2,22.3-25.1,33.5c-1.4,1.9-2.6,3.9-3.6,6c-3.6,6.2-6.7,12.4-9.3,18.5  c0,0,0,0.1-0.1,0.1c-0.1,0.1-0.1,0.2-0.1,0.3c-2.9,6.7-5.2,13.4-7.1,20.1c0,0,0,0,0,0c0,0,0,0,0,0c0,0.1,0,0.2,0,0.3  c0,0,0,0.1,0,0.1c0,0.1,0,0.2,0,0.3c0,0,0,0.1,0,0.1c0,0.1,0.1,0.2,0.1,0.3c0,0,0,0,0,0c0,0,0,0,0,0c0,0,0,0,0,0  c0.1,0.1,0.1,0.2,0.2,0.3c0,0,0.1,0,0.1,0.1c0.1,0.1,0.1,0.1,0.2,0.2c0,0,0.1,0,0.1,0.1c0.1,0,0.2,0.1,0.3,0.1c0,0,0,0,0.1,0  c0,0,0,0,0,0c5.7,1.5,11.3,2.6,17,3.5c0,0,0.1,0,0.1,0c0,0,0.1,0,0.1,0c8.7,1.4,17.5,2.1,26.2,2.2c0.6,0,1.2,0.1,1.8,0.1  c0.6,0,1.2,0,1.8-0.1c8.8-0.1,17.5-0.8,26.2-2.2c0,0,0.1,0,0.1,0c0.1,0,0.1,0,0.2,0c5.7-0.9,11.4-2.1,17-3.5c0,0,0,0,0,0  c0,0,0,0,0.1,0c0.1,0,0.2-0.1,0.3-0.1c0,0,0.1,0,0.1-0.1c0.1,0,0.1-0.1,0.2-0.2c0,0,0,0,0.1-0.1C96.2,88.3,96.2,88.2,96.3,88  C96.3,88.1,96.3,88.1,96.3,88C96.3,88.1,96.3,88.1,96.3,88z M79.3,89.1c0-0.4-0.1-0.8-0.1-1.1c1.5,0.1,3,0.3,4.5,0.4  C82.2,88.6,80.7,88.9,79.3,89.1z M70.9,84.1c-0.1,0-0.2,0-0.3,0c-4.9-0.7-9.7-1.5-14.4-2.5c6.1-1.8,12.1-3.8,17.9-6.2  c0.6,3.1,1.1,6.2,1.6,9.3C74.1,84.5,72.5,84.3,70.9,84.1z M48.3,91.6c-5.4-0.3-10.6-2.1-15-5.1c5.7-0.9,11.3-2,16.7-3.3  c5.4,1.3,11,2.5,16.7,3.3c-4.5,3-9.6,4.8-15,5.1C50.6,91.6,49.4,91.6,48.3,91.6z M29.1,84.1c-1.6,0.2-3.2,0.4-4.8,0.6  c0.5-3.2,1-6.3,1.6-9.3c5.8,2.4,11.8,4.5,17.9,6.2c-4.7,1-9.5,1.8-14.4,2.5C29.4,84,29.2,84,29.1,84.1z M16.4,88.3  c1.5-0.1,3-0.2,4.5-0.4c0,0.4-0.1,0.8-0.1,1.1C19.3,88.9,17.8,88.6,16.4,88.3z M12.9,69.3c0.5,0.3,1,0.5,1.5,0.8  c-1.5,2.1-2.9,4.3-4.4,6.6C10.9,74.2,11.8,71.7,12.9,69.3z M7.7,85.8c3.1-5,6.2-9.8,9.4-14.4c2,0.9,4,1.8,6,2.7  c-0.7,3.5-1.3,7.1-1.8,10.8C16.8,85.3,12.3,85.6,7.7,85.8z M20.1,61.7c0-4.4,1-8.6,2.7-12.5c1.1-1.9,2.2-3.8,3.4-5.7  c2.2-2.9,5-5.4,8.2-7.4c-2,4.7-3.7,9.5-5.3,14.3c-3,3.7-6,7.5-9,11.5C20.1,61.9,20.1,61.8,20.1,61.7z M40,23.9c0,0,0.1,0.1,0.1,0.1  c-1.3,2.6-2.6,5.2-3.8,7.8c-1.2,0.6-2.4,1.2-3.6,1.9C35,30.4,37.4,27.2,40,23.9z M67.4,33.8c-1.2-0.7-2.4-1.4-3.7-2  c-1.2-2.6-2.4-5.2-3.8-7.8c0,0,0.1-0.1,0.1-0.1C62.6,27.2,65.1,30.5,67.4,33.8z M42.5,25.9c1.8,1.5,3.6,3,5.3,4.6  c-4.5,4.2-9,8.8-13.3,13.7C36.8,38,39.4,31.9,42.5,25.9z M79.9,62c-3-4-6-7.8-9-11.5c-1.6-4.9-3.3-9.6-5.3-14.3  c8.8,5.4,14.3,15,14.3,25.5C79.9,61.8,79.9,61.9,79.9,62z M65.6,44.3c-4.4-4.9-8.8-9.5-13.3-13.7c1.8-1.6,3.5-3.1,5.3-4.6  C60.6,31.9,63.2,38,65.6,44.3z M50,28.5c-2-1.8-4.1-3.6-6.1-5.3c1.9-3.6,4-7.3,6.1-10.9c2.2,3.6,4.2,7.2,6.1,10.9  C54.1,24.9,52,26.7,50,28.5z M50,32.6c6.2,5.8,12.3,12.3,18.2,19.4c2.1,6.6,3.9,13.3,5.3,20.3C65.9,75.4,58.1,78,50,80.1  c-8.1-2-15.9-4.6-23.5-7.8c1.4-7,3.2-13.8,5.3-20.3C37.7,44.8,43.8,38.4,50,32.6z M73.2,58.2c2.2,2.9,4.4,5.8,6.6,8.9c0,0,0,0,0,0  c0.4,0.6,0.8,1.2,1.3,1.8c-1.6,0.8-3.2,1.5-4.8,2.2C75.4,66.7,74.4,62.4,73.2,58.2z M82.6,65.8c0.2-1.3,0.3-2.7,0.3-4.1  c0-0.8,0-1.7-0.1-2.5c1.2,2.4,2.3,4.8,3.4,7.2c-0.8,0.4-1.5,0.8-2.3,1.2C83.5,67,83,66.4,82.6,65.8z M20.1,67.1  C20.1,67.1,20.1,67.1,20.1,67.1c2.2-3.1,4.4-6.1,6.7-8.9c-1.2,4.2-2.2,8.5-3.1,12.9c-1.6-0.7-3.2-1.4-4.8-2.2  C19.3,68.3,19.7,67.7,20.1,67.1z M76.9,74.1c2-0.9,4-1.8,6-2.7c3.2,4.6,6.3,9.4,9.4,14.4c-4.6-0.1-9.1-0.4-13.5-0.8  C78.2,81.2,77.6,77.6,76.9,74.1z M85.6,70.1c0.6-0.3,1.2-0.6,1.8-0.9c1.1,2.7,2.2,5.4,3.1,8.1C88.9,74.8,87.2,72.4,85.6,70.1z   M17.4,65.8c-0.4,0.6-0.8,1.2-1.3,1.8c-0.7-0.3-1.4-0.7-2.1-1c1-2.2,2-4.4,3.1-6.7c0,0.6-0.1,1.2-0.1,1.9  C17.1,63.1,17.2,64.4,17.4,65.8z M23.7,89.6c0.1-0.6,0.2-1.3,0.3-1.9c1.7-0.2,3.4-0.4,5.1-0.6c1.8,1.5,3.7,2.8,5.8,3.8  C31.1,90.6,27.4,90.2,23.7,89.6z M70.9,87.1c1.7,0.2,3.4,0.4,5.1,0.6c0.1,0.6,0.2,1.3,0.3,1.9c-3.7,0.6-7.5,1-11.2,1.3  C67.2,89.9,69.1,88.6,70.9,87.1z" />
</svg>